<svg width="91" height="96" viewBox="0 0 91 96" fill="none" xmlns="http://www.w3.org/2000/svg">
<path d="M63 25C64.7471 20.7887 70.9931 12.727 82 14.1709" stroke="#80703C" stroke-width="6"/>
<circle cx="40" cy="56" r="40" fill="#2A2C3F"/>
<path fill-rule="evenodd" clip-rule="evenodd" d="M74.4724 48.9122C69.5536 37.2141 57.986 29 44.5 29C26.5508 29 12 43.5507 12 61.5C12 70.8156 15.9193 79.2157 22.199 85.1415C11.9037 79.0481 5 67.8303 5 55C5 35.67 20.67 20 40 20C57.2535 20 71.5912 32.4842 74.4724 48.9122Z" fill="#424467"/>
<path d="M78.5 0L81.2553 5.84807L87.3388 3.66117L85.1519 9.74468L91 12.5L85.1519 15.2553L87.3388 21.3388L81.2553 19.1519L78.5 25L75.7447 19.1519L69.6612 21.3388L71.8481 15.2553L66 12.5L71.8481 9.74468L69.6612 3.66117L75.7447 5.84807L78.5 0Z" fill="#FF404D"/>
<path d="M78.5 4L80.3736 7.97669L84.5104 6.48959L83.0233 10.6264L87 12.5L83.0233 14.3736L84.5104 18.5104L80.3736 17.0233L78.5 21L76.6264 17.0233L72.4896 18.5104L73.9767 14.3736L70 12.5L73.9767 10.6264L72.4896 6.48959L76.6264 7.97669L78.5 4Z" fill="#FFE748"/>
<path d="M17.5 67.5V66H16V64.5H19V66H23.5V63H17.5V61.5H16V58.5H17.5V57H25V58.5H26.5V60H23.5V58.5H19V61.5H25V63H26.5V66H25V67.5H17.5ZM29.5 67.5V66H28V64.5H29.5V63H35.5V61.5H29.5V60H37V61.5H38.5V67.5H29.5ZM31 66H35.5V64.5H31V66ZM40 69V60H49V61.5H50.5V64.5H49V66H43V69H40ZM43 64.5H47.5V61.5H43V64.5ZM53.5 67.5V66H52V61.5H53.5V60H61V61.5H62.5V64.5H55V66H61V67.5H53.5ZM55 63H59.5V61.5H55V63ZM68.5 61.5H70V63H68.5V67.5H65.5V60H68.5V61.5ZM74.5 60V61.5H70V60H74.5Z" fill="white"/>
</svg>
