<svg width="91" height="98" viewBox="0 0 91 98" fill="none" xmlns="http://www.w3.org/2000/svg">
<path fill-rule="evenodd" clip-rule="evenodd" d="M68.25 17.8182H63.7V22.2727H59.15V26.7273H63.7V31.1818H68.25V26.7273H72.8V22.2727H68.25V17.8182Z" fill="#CCA863"/>
<path fill-rule="evenodd" clip-rule="evenodd" d="M72.8 13.3636H68.25V17.8182H63.7V22.2727H68.25V26.7273H72.8V22.2727H77.35V17.8182H72.8V13.3636Z" fill="#CCA863"/>
<path fill-rule="evenodd" clip-rule="evenodd" d="M72.8 8.90909H77.35V13.3636H81.9V17.8182H77.35V22.2727H72.8V17.8182H68.25V13.3636H72.8V8.90909Z" fill="#CCA863"/>
<ellipse cx="43.225" cy="60.1364" rx="34.125" ry="33.4091" fill="#2A2B3F"/>
<path fill-rule="evenodd" clip-rule="evenodd" d="M54.6 17.8182H27.3V22.2727H22.75V22.2728H18.2V26.7273H13.65V31.1818H9.09999V35.6364H4.54999L4.55 40.0909L18.2 40.0909V35.6364H22.75L22.75 35.6364H27.3V31.1818H31.85V26.7273H50.05V31.1818H54.6V35.6364H59.15H63.7V40.0909L77.35 40.0909V31.1818L77.35 35.6364H72.8V31.1818H68.25L68.25 26.7273H63.7V22.2727H59.15H54.6V17.8182ZM28 98H55V93.5455H59.15H63.7V89.0909H68.25L68.25 84.6364H72.8V80.1818H77.35L77.35 84.6364V75.7273V69.3637H81.9001V46.4546H77.35V40.0909H68.25L68.25 49H72.8V66.8182H68.25L68.25 75.7273L63.7 75.7273V80.1818L59.15 80.1818H54.6V84.6364H50.05V89.0909H31.85V84.6364H27.3V80.1819H22.75L22.75 80.1818H18.2V75.7273H13.65L13.65 66.8182H9.10001V49H13.65V40.091H4.54999V44.5455H0V71.2728H4.54999V75.7273V80.1818H9.09999V84.6364L13.65 84.6364L13.65 89.0909H18.2V93.5455H13.65L13.65 93.5455H27.3V93.5455H28V98Z" fill="#2A2B3F"/>
<rect x="9.10001" y="49" width="4.55" height="22.2727" fill="#424467"/>
<rect x="13.65" y="40.0909" width="4.55" height="13.3636" fill="#424467"/>
<rect x="13.65" y="66.8182" width="4.55" height="8.90909" fill="#424467"/>
<rect x="18.2" y="35.6364" width="4.55" height="8.90909" fill="#424467"/>
<rect x="31.85" y="26.7273" width="18.2" height="4.45455" fill="#424467"/>
<rect x="27.3" y="31.1818" width="4.55" height="8.90909" fill="#424467"/>
<rect x="31.85" y="31.1818" width="4.55" height="4.45455" fill="#424467"/>
<rect x="45.5" y="31.1818" width="9.1" height="4.45455" fill="#424467"/>
<rect x="22.75" y="35.6364" width="4.55" height="4.45455" fill="#424467"/>
<rect x="77.35" width="4.55" height="8.90909" fill="#FF0000"/>
<rect x="72.8" y="4.45454" width="4.55" height="8.90909" fill="#FF0000"/>
<rect x="81.9" y="8.90909" width="9.1" height="4.45455" fill="#FF0000"/>
<rect x="77.35" y="4.45454" width="9.1" height="4.45455" fill="#FF0000"/>
<rect x="77.35" y="13.3636" width="9.1" height="4.45455" fill="#FF0000"/>
<rect x="81.9" y="13.3636" width="4.55" height="4.45455" fill="#FF0000"/>
<rect x="72.8" y="13.3636" width="9.1" height="8.90909" fill="#FF0000"/>
<rect x="68.25" y="8.90909" width="4.55" height="8.90909" fill="#FF0000"/>
<path d="M72.8 13.3636H77.35V17.8182H72.8V13.3636Z" fill="#FFFF00"/>
<rect x="72.8" y="8.90909" width="9.1" height="4.45455" fill="#FFAC0B"/>
<rect x="77.35" y="13.3636" width="4.55" height="4.45455" fill="#FFAC0B"/>
<rect x="36.4" y="31.1818" width="9.1" height="4.45455" fill="#373956"/>
<rect x="31.85" y="35.6364" width="9.1" height="4.45455" fill="#373956"/>
<rect x="22.75" y="40.0909" width="9.1" height="4.45455" fill="#373956"/>
<rect x="18.2" y="44.5455" width="9.1" height="4.45455" fill="#373956"/>
<rect x="18.2" y="49" width="4.55" height="8.90909" fill="#373956"/>
<rect x="13.65" y="53.4545" width="4.55" height="13.3636" fill="#373956"/>
</svg>
