<svg width="93" height="98" viewBox="0 0 93 98" fill="none" xmlns="http://www.w3.org/2000/svg">
<path fill-rule="evenodd" clip-rule="evenodd" d="M70.25 17.8182H65.7V22.2727H61.15V26.7273H65.7V31.1818H70.25V26.7273H74.8V22.2727H70.25V17.8182Z" fill="#CCA863"/>
<path fill-rule="evenodd" clip-rule="evenodd" d="M74.8 13.3636H70.25V17.8182H65.7V22.2727H70.25V26.7273H74.8V22.2727H79.35V17.8182H74.8V13.3636Z" fill="#CCA863"/>
<path fill-rule="evenodd" clip-rule="evenodd" d="M74.8 8.90909H79.35V13.3636H83.9V17.8182H79.35V22.2727H74.8V17.8182H70.25V13.3636H74.8V8.90909Z" fill="#CCA863"/>
<ellipse cx="45.225" cy="60.1364" rx="34.125" ry="33.4091" fill="#2A2B3F"/>
<path fill-rule="evenodd" clip-rule="evenodd" d="M56.6 17.8182H29.3V22.2727H24.75V22.2728H20.2V26.7273H15.65V31.1818H11.1V35.6364H6.54999L6.55 40.0909L20.2 40.0909V35.6364H24.75L24.75 35.6364H29.3V31.1818H33.85V26.7273H52.05V31.1818H56.6V35.6364H61.15H65.7V40.0909L79.35 40.0909V31.1818L79.35 35.6364H74.8V31.1818H70.25L70.25 26.7273H65.7V22.2727H61.15H56.6V17.8182ZM30 98H57V93.5455H61.15H65.7V89.0909H70.25L70.25 84.6364H74.8V80.1818H79.35L79.35 84.6364V75.7273V69.3637H83.9001V46.4546H79.35V40.0909H70.25L70.25 49H74.8V66.8182H70.25L70.25 75.7273L65.7 75.7273V80.1818L61.15 80.1818H56.6V84.6364H52.05V89.0909H33.85V84.6364H29.3V80.1819H24.75L24.75 80.1818H20.2V75.7273H15.65L15.65 66.8182H11.1V49H15.65V40.091H6.54999V44.5455H2V71.2728H6.54999V75.7273V80.1818H11.1V84.6364L15.65 84.6364L15.65 89.0909H20.2V93.5455H15.65L15.65 93.5455H29.3V93.5455H30V98Z" fill="#2A2B3F"/>
<rect x="11.1" y="49" width="4.55" height="22.2727" fill="#424467"/>
<rect x="15.65" y="40.0909" width="4.55" height="13.3636" fill="#424467"/>
<rect x="15.65" y="66.8182" width="4.55" height="8.90909" fill="#424467"/>
<rect x="20.2" y="35.6364" width="4.55" height="8.90909" fill="#424467"/>
<rect x="33.85" y="26.7273" width="18.2" height="4.45455" fill="#424467"/>
<rect x="29.3" y="31.1818" width="4.55" height="8.90909" fill="#424467"/>
<rect x="33.85" y="31.1818" width="4.55" height="4.45455" fill="#424467"/>
<rect x="47.5" y="31.1818" width="9.1" height="4.45455" fill="#424467"/>
<rect x="24.75" y="35.6364" width="4.55" height="4.45455" fill="#424467"/>
<rect x="79.35" width="4.55" height="8.90909" fill="#FF0000"/>
<rect x="74.8" y="4.45454" width="4.55" height="8.90909" fill="#FF0000"/>
<rect x="83.9" y="8.90909" width="9.1" height="4.45455" fill="#FF0000"/>
<rect x="79.35" y="4.45454" width="9.1" height="4.45455" fill="#FF0000"/>
<rect x="79.35" y="13.3636" width="9.1" height="4.45455" fill="#FF0000"/>
<rect x="83.9" y="13.3636" width="4.55" height="4.45455" fill="#FF0000"/>
<rect x="74.8" y="13.3636" width="9.1" height="8.90909" fill="#FF0000"/>
<rect x="70.25" y="8.90909" width="4.55" height="8.90909" fill="#FF0000"/>
<path d="M74.8 13.3636H79.35V17.8182H74.8V13.3636Z" fill="#FFFF00"/>
<rect x="74.8" y="8.90909" width="9.1" height="4.45455" fill="#FFAC0B"/>
<rect x="79.35" y="13.3636" width="4.55" height="4.45455" fill="#FFAC0B"/>
<rect x="38.4" y="31.1818" width="9.1" height="4.45455" fill="#373956"/>
<rect x="33.85" y="35.6364" width="9.1" height="4.45455" fill="#373956"/>
<rect x="24.75" y="40.0909" width="9.1" height="4.45455" fill="#373956"/>
<rect x="20.2" y="44.5455" width="9.1" height="4.45455" fill="#373956"/>
<rect x="20.2" y="49" width="4.55" height="8.90909" fill="#373956"/>
<rect x="15.65" y="53.4545" width="4.55" height="13.3636" fill="#373956"/>
<path d="M9.47045 61.3902L9.77433 59.6667L8.05092 59.3629L8.3548 57.6394L11.8016 58.2472L11.4977 59.9706L16.668 60.8823L17.2758 57.4354L10.3821 56.2199L10.686 54.4965L8.96257 54.1926L9.57034 50.7458L11.2938 51.0497L11.5976 49.3263L20.2147 50.8457L19.9108 52.5691L21.6342 52.873L21.3304 54.5964L17.8835 53.9886L18.1874 52.2652L13.0172 51.3536L12.4094 54.8004L19.3031 56.0159L18.9992 57.7393L20.7226 58.0432L20.1148 61.49L18.3914 61.1862L18.0875 62.9096L9.47045 61.3902ZM23.2578 63.8212L23.5616 62.0978L21.8382 61.7939L22.1421 60.0705L23.8655 60.3744L24.1694 58.651L31.0631 59.8665L31.367 58.1431L24.4733 56.9276L24.7772 55.2042L33.3943 56.7236L33.0904 58.447L34.8138 58.7509L33.5982 65.6445L23.2578 63.8212ZM25.2851 62.4017L30.4553 63.3133L30.7592 61.5899L25.5889 60.6783L25.2851 62.4017ZM35.0178 67.6718L36.8411 57.3313L47.1816 59.1547L46.8777 60.8781L48.6011 61.182L47.9933 64.6288L46.2699 64.3249L45.966 66.0483L39.0724 64.8328L38.4646 68.2796L35.0178 67.6718ZM39.3763 63.1094L44.5465 64.021L45.1543 60.5742L39.984 59.6625L39.3763 63.1094ZM50.8324 68.6834L51.1363 66.96L49.4129 66.6561L50.3245 61.4858L52.0479 61.7897L52.3518 60.0663L60.9689 61.5857L60.665 63.3091L62.3884 63.613L61.7806 67.0599L53.1636 65.5404L52.8597 67.2638L59.7533 68.4794L59.4494 70.2028L50.8324 68.6834ZM53.4674 63.817L58.6377 64.7287L58.9416 63.0053L53.7713 62.0936L53.4674 63.817ZM69.2821 64.8286L71.0055 65.1324L70.7016 66.8559L68.9782 66.552L68.0665 71.7222L64.6197 71.1145L66.1391 62.4974L69.5859 63.1051L69.2821 64.8286ZM76.4796 64.3207L76.1757 66.0441L71.0055 65.1324L71.3094 63.409L76.4796 64.3207Z" fill="#EFF623"/>
</svg>
