<svg width="22" height="22" viewBox="0 0 22 22" fill="none" xmlns="http://www.w3.org/2000/svg">
<circle cx="11" cy="11" r="7" fill="#555555"/>
<path d="M11 0L12.639 8.16117L20.5263 5.5L14.278 11L20.5263 16.5L12.639 13.8388L11 22L9.361 13.8388L1.47372 16.5L7.722 11L1.47372 5.5L9.361 8.16117L11 0Z" fill="#555555"/>
<path fill-rule="evenodd" clip-rule="evenodd" d="M16.9775 11.5229C16.9924 11.3506 17 11.1762 17 11C17 7.68629 14.3137 5 11 5C7.68629 5 5 7.68629 5 11C5 14.3137 7.68629 17 11 17C11.1762 17 11.3506 16.9924 11.5229 16.9775C8.98526 16.7373 7 14.6005 7 12C7 9.23858 9.23858 7 12 7C14.6005 7 16.7373 8.98526 16.9775 11.5229Z" fill="#666666"/>
</svg>
