<svg width="20" height="20" viewBox="0 0 20 20" fill="none" xmlns="http://www.w3.org/2000/svg">
<path fill-rule="evenodd" clip-rule="evenodd" d="M7.77778 2.22221H12.2222V3.33333H13.3333H14.4444V4.44443H16.6667V6.66666L16.6667 6.66665V7.77777H17.7778V12.2222H16.6667V13.3333L14.4448 13.3333H16.6667V15.5556H14.4444V16.6667H13.3333V16.6667H12.2222V17.7778H7.77779V16.6667H6.66668H5.55556L5.55556 15.5556H3.33334V13.3333H5.55515L5.55514 13.3333H3.33334V12.2222H2.22221V7.77777H3.33334V6.66666V4.44443H5.55556L5.55556 3.33333L7.77778 3.33333V2.22221Z" fill="#2A2A2A"/>
<rect x="8.88889" width="2.22222" height="2.22222" fill="#2A2A2A"/>
<rect x="17.7778" y="8.88889" width="2.22222" height="2.22222" fill="#2A2A2A"/>
<rect x="8.88889" y="17.7778" width="2.22222" height="2.22222" fill="#2A2A2A"/>
<rect y="8.88889" width="2.22222" height="2.22222" fill="#2A2A2A"/>
<rect x="16.6667" y="3.33334" width="1.11111" height="1.11111" fill="#2A2A2A"/>
<rect x="16.6667" y="15.5556" width="1.11111" height="1.11111" fill="#2A2A2A"/>
<rect x="2.22221" y="15.5556" width="1.11111" height="1.11111" fill="#2A2A2A"/>
<rect x="2.22221" y="3.33334" width="1.11111" height="1.11111" fill="#2A2A2A"/>
<rect x="5.55556" y="5.55556" width="4.44444" height="2.22222" fill="white"/>
</svg>
