<svg width="22" height="22" viewBox="0 0 22 22" fill="none" xmlns="http://www.w3.org/2000/svg">
<circle cx="11" cy="11" r="8" fill="#555555"/>
<path d="M11 0L13.365 6.9037L20.5263 5.5L15.73 11L20.5263 16.5L13.365 15.0963L11 22L8.635 15.0963L1.47372 16.5L6.27 11L1.47372 5.5L8.635 6.9037L11 0Z" fill="#555555"/>
<path fill-rule="evenodd" clip-rule="evenodd" d="M17.981 11.5193C17.9936 11.3479 18 11.1747 18 11C18 7.134 14.866 4 11 4C7.13401 4 4 7.134 4 11C4 14.866 7.13401 18 11 18C11.1747 18 11.3479 17.9936 11.5193 17.981C8.43037 17.7362 6 15.1519 6 12C6 8.68629 8.68629 6 12 6C15.1519 6 17.7362 8.43037 17.981 11.5193Z" fill="#666666"/>
</svg>
