<svg width="36" height="36" viewBox="0 0 36 36" fill="none" xmlns="http://www.w3.org/2000/svg">
<rect width="36" height="36" fill="#BDBDBD"/>
<rect width="3" height="36" fill="white"/>
<rect x="33" width="3" height="36" fill="#999999"/>
<path fill-rule="evenodd" clip-rule="evenodd" d="M0 36H36V33L3 33L0 36Z" fill="#999999"/>
<path fill-rule="evenodd" clip-rule="evenodd" d="M0 0V3H33L36 0H0Z" fill="white"/>
<path d="M23.5938 15.3438H15.3111V12.1316C15.3111 10.715 16.5027 9.5625 17.9673 9.5625C19.432 9.5625 20.6236 10.715 20.6236 12.1316V13.625H22.1861V12.1316C22.1861 9.85344 20.2935 8 17.9673 8C15.6411 8 13.7486 9.85344 13.7486 12.1316V15.3438H12.3438C11.0514 15.3438 10 16.3952 10 17.6875V25.6562C10 26.9486 11.0514 28 12.3438 28H23.5938C24.8861 28 25.9375 26.9486 25.9375 25.6562V17.6875C25.9375 16.3952 24.8861 15.3438 23.5938 15.3438ZM24.375 25.6562C24.375 26.087 24.0245 26.4375 23.5938 26.4375H12.3438C11.913 26.4375 11.5625 26.087 11.5625 25.6562V17.6875C11.5625 17.2567 11.913 16.9062 12.3438 16.9062H23.5938C24.0245 16.9062 24.375 17.2567 24.375 17.6875V25.6562Z" fill="#0E07DF"/>
<path d="M17.9688 19.1719C17.1705 19.1719 16.5234 19.8189 16.5234 20.6172C16.5234 21.1269 16.7875 21.5746 17.1861 21.832V23.5469C17.1861 23.9783 17.5358 24.3281 17.9673 24.3281C18.3987 24.3281 18.7486 23.9783 18.7486 23.5469V21.8338C19.1487 21.5768 19.4141 21.1281 19.4141 20.6172C19.4141 19.8189 18.767 19.1719 17.9688 19.1719Z" fill="#0E07DF"/>
</svg>
