<svg width="512" height="502" viewBox="0 0 512 502" fill="none" xmlns="http://www.w3.org/2000/svg">
<path d="M116 441.068C129.632 452.435 150.803 460.883 182.307 456.696C182.36 463.344 182.417 469.223 182.464 474.159C182.528 480.77 182.576 485.692 182.576 488.512C182.576 489.861 182.093 490.584 181.879 490.78C181.805 490.848 181.587 491.035 180.981 491.176C180.392 491.312 179.301 491.429 177.546 491.167C80.1393 458.265 10 365.878 10 257.024C10 120.557 120.185 10 255.968 10C391.817 10 502 120.558 502 257.024C502 365.868 431.898 458.235 334.624 491.153C332.788 491.451 331.657 491.339 331.058 491.206C330.454 491.072 330.257 490.891 330.204 490.844C330.027 490.681 329.52 489.962 329.52 488.512C329.52 485.763 329.555 480.926 329.601 474.409C329.625 471.054 329.652 467.252 329.68 463.061C329.76 450.774 329.84 435.23 329.84 418.016C329.84 401.665 326.337 388.223 320.819 377.938C344.734 373.77 369.077 365.819 388.715 349.311C413.599 328.392 429.328 295.148 429.328 243.616C429.328 215.289 420.032 191.495 404.359 172.438C408.043 160.142 412.341 134.853 399.767 102.957L398.032 98.5548L393.528 97.105L390.464 106.624C393.528 97.105 393.519 97.1019 393.509 97.0988L393.489 97.0924L393.447 97.0793C393.419 97.0704 393.389 97.0613 393.358 97.0518C393.296 97.0328 393.228 97.0128 393.154 96.9917C393.008 96.9497 392.839 96.9039 392.648 96.8559C392.265 96.7598 391.794 96.655 391.234 96.5531C390.113 96.3493 388.64 96.159 386.808 96.0742C383.136 95.9043 378.074 96.1602 371.55 97.5406C359.187 100.156 341.655 106.79 318.34 122.124C298.26 116.946 277.051 114.412 256.091 114.288L256.039 114.288L255.988 114.288C234.951 114.381 213.765 116.943 193.727 122.096C170.393 106.757 152.842 100.124 140.468 97.5081C133.938 96.1281 128.872 95.8724 125.198 96.0422C123.365 96.1269 121.891 96.3171 120.77 96.5207C120.209 96.6224 119.738 96.7271 119.356 96.8231C119.165 96.871 118.996 96.9167 118.849 96.9587C118.776 96.9796 118.708 96.9997 118.646 97.0186C118.615 97.028 118.585 97.0372 118.557 97.0461L118.515 97.0591L118.495 97.0655C118.486 97.0686 118.476 97.0717 121.536 106.592L118.476 97.0717L113.966 98.5213L112.231 102.929C99.6883 134.791 103.984 160.097 107.697 172.422C92.0603 191.458 82.672 215.241 82.672 243.584C82.672 294.994 98.3875 328.238 123.209 349.214C142.835 365.799 167.165 373.839 191.056 378.07C188.05 383.717 185.654 390.308 184.111 397.803C177.564 400.202 168.784 402.335 159.75 401.524C148.974 400.557 136.934 395.372 127.184 378.663C127.179 378.654 127.174 378.645 127.169 378.636C127.122 378.553 127.061 378.446 126.986 378.317C126.837 378.06 126.631 377.714 126.37 377.292C125.849 376.45 125.102 375.297 124.13 373.932C122.195 371.215 119.318 367.586 115.498 363.877C107.927 356.527 96.0282 348.283 80.0041 347.145L79.7144 347.125L79.424 347.121L79.296 357.12C79.424 347.121 79.4209 347.121 79.4176 347.121L79.4106 347.121L79.3948 347.12L79.356 347.12C79.327 347.12 79.2918 347.12 79.2506 347.12C79.1683 347.119 79.0619 347.12 78.9338 347.121C78.6782 347.123 78.3328 347.129 77.917 347.144C77.0946 347.172 75.9513 347.236 74.6549 347.38C72.4609 347.622 68.3044 348.233 64.7399 350.273C62.8479 351.356 60.2102 353.36 58.713 356.822C57.084 360.589 57.5204 364.389 58.8035 367.445C60.9572 372.573 66.0129 376.942 71.9167 380.986L72.5816 381.441L73.1979 381.731C73.2318 381.75 73.2894 381.781 73.3694 381.826C73.6173 381.967 74.0801 382.244 74.7175 382.681C75.9907 383.555 77.9674 385.074 80.3265 387.449C84.9872 392.139 91.2786 400.302 96.5625 413.702C96.6104 413.847 96.6685 414.018 96.7377 414.214C96.9193 414.73 97.1772 415.422 97.5226 416.261C98.2121 417.936 99.2571 420.21 100.75 422.84C103.729 428.087 108.556 434.861 116 441.068ZM256.032 124.287V124.287V124.287Z" fill="#6BD7F9" stroke="black" stroke-width="20"/>
<circle cx="396" cy="418" r="10" fill="black"/>
<path d="M460.5 315C454.333 333 437.6 373.3 420 390.5" stroke="black" stroke-width="20" stroke-linecap="round"/>
</svg>
