<?xml version="1.0" encoding="UTF-8"?><svg viewBox="0 0 18 18" xmlns="http://www.w3.org/2000/svg"><circle cx="9" cy="9" r="8" fill="#FFBBFC"/><path d="m12 0h-6v1h-1v2e-5h-0.99999v0.99998h-1v1h-1v1h-1v-1h-1.3e-5v2h3v-1h1v2e-5h1v-1h1v-1h4v1h1v1h1v1-1h1v1h3v-1h-1v-1h-1v-1h-1v-1h-2v-1zm-5.5714 18h5.1429v-1h0.4285 3-1v-1h1v-1h1v-1h1v-2.4286h1v-5.1428h-1v-1.4286h-2v2h1v4h-1v2h-1v1h-1-1v1h-1v1h-4v-1h-1v-1h-2v-1h-1v-2h-1v-4h1v-2h-2v1h-1v6h1v2h1v1h1v1h1v1h-1 3.4286v1z" clip-rule="evenodd" fill="#6C39FF" fill-rule="evenodd"/><path d="M8 2H10V3H8V4H7V5H6H5V6H4V8H3V9V11H2V9V7H3V6V5H4V4H6V3H7V2H8Z" clip-rule="evenodd" fill="#fff" fill-opacity=".15" fill-rule="evenodd"/><path d="m10 16h-2-1v-1h-1v-1h-2v-1h2 1v1h1v1h2v-1h1v-1h1 1v-1h1v-2h1v-1-1h-1v-2h-1v-1h-1-1v-1h-1v-2h1v1h1v1h2v1h1v2h1v4h-1v2h-1v1h-2v1h-1v1h-1zm-6-3h-1v-3h1v3z" clip-rule="evenodd" fill="#fff" fill-opacity=".15" fill-rule="evenodd"/><path d="M4.25 11.75V11H3.5V10.25H5V11H7.25V8.75H3.5V6.5H8V7.25H5V8H8V8.75H8.75V11H8V11.75H4.25ZM11 11.75V11H10.25V10.25H9.5V8H10.25V7.25H11V6.5H13.25V7.25H14V8H14.75V10.25H14V11H13.25V11.75H11ZM11.75 11H13.25V8H12.5V7.25H11V10.25H11.75V11Z" fill="#4724AD"/><path d="m0-1.5259e-5h1v1h-1v-1zm1 1h1v1h-1v-1zm2-0.99998h1v1h-1v-1zm-3 3h1v1h-1v-1z" clip-rule="evenodd" fill="#BBF0FF" fill-rule="evenodd"/><path d="m18 18h-1v-1h1v1zm-1-1h-1v-1h1v1zm-2 1h-1v-1h1v1zm3-3h-1v-1h1v1z" clip-rule="evenodd" fill="#BBF0FF" fill-rule="evenodd"/><path d="m0 18v-1h1v1h-1zm1-1v-1h1v1h-1zm-0.99998-2v-1h1v1h-1zm3 3v-1h1v1h-1z" clip-rule="evenodd" fill="#BBF0FF" fill-rule="evenodd"/><path d="m18 0v1h-1v-1h1zm-1 1v1h-1v-1h1zm1 2v1h-1v-1h1zm-3-3v1h-1v-1h1z" clip-rule="evenodd" fill="#BBF0FF" fill-rule="evenodd"/></svg>