<?xml version="1.0" encoding="UTF-8"?><svg viewBox="0 0 18 18" xmlns="http://www.w3.org/2000/svg"><circle cx="9" cy="9" r="8" fill="#BBF0FF"/><path d="m12 0h-6v1h-1v2e-5h-0.99999v0.99998h-1v1h-1v1h-1v-1h-1.3e-5v2h3v-1h1v2e-5h1v-1h1v-1h4v1h1v1h1v1-1h1v1h3v-1h-1v-1h-1v-1h-1v-1h-2v-1zm-5.5714 18h5.1429v-1h0.4285 3-1v-1h1v-1h1v-1h1v-2.4286h1v-5.1428h-1v-1.4286h-2v2h1v4h-1v2h-1v1h-1-1v1h-1v1h-4v-1h-1v-1h-2v-1h-1v-2h-1v-4h1v-2h-2v1h-1v6h1v2h1v1h1v1h1v1h-1 3.4286v1z" clip-rule="evenodd" fill="#7FE3FF" fill-rule="evenodd"/><path d="M8 2H10V3H8V4H7V5H6H5V6H4V8H3V9V11H2V9V7H3V6V5H4V4H6V3H7V2H8Z" clip-rule="evenodd" fill="#fff" fill-opacity=".15" fill-rule="evenodd"/><path d="m10 16h-2-1v-1h-1v-1h-2v-1h2 1v1h1v1h2v-1h1v-1h2v-1h1v-2h1v-1-1h-1v-2h-1v-1h-2v-1h-1v-2h1v1h1v1h2v1h1v2h1v4h-1v2h-1v1h-2v1h-1v1h-1zm-6-3h-1v-3h1v3z" clip-rule="evenodd" fill="#fff" fill-opacity=".15" fill-rule="evenodd"/><path d="M3.75 11.25V10.5H5.25V7.5H4.5V6.75H5.25V6H6.75V10.5H8.25V11.25H3.75ZM10.5 11.25V10.5H9.75V9.75H9V7.5H9.75V6.75H10.5V6H12.75V6.75H13.5V7.5H14.25V9.75H13.5V10.5H12.75V11.25H10.5ZM11.25 10.5H12.75V7.5H12V6.75H10.5V9.75H11.25V10.5Z" fill-opacity=".58"/></svg>